<?xml version="1.0" encoding="UTF-8"?>
<svg id="Layer_1" data-name="Layer 1" xmlns="http://www.w3.org/2000/svg" xmlns:xlink="http://www.w3.org/1999/xlink" viewBox="0 0 873.48 889.44">
  <defs>
    <style>
      .cls-1 {
        fill: none;
      }

      .cls-2 {
        fill: #fff;
        font-family: Montserrat-Bold, Montserrat;
        font-size: 32.77px;
        font-variation-settings: 'wght' 700;
        font-weight: 700;
      }

      .cls-3 {
        fill: url(#radial-gradient-4);
      }

      .cls-4 {
        fill: url(#radial-gradient-3);
      }

      .cls-5 {
        fill: url(#radial-gradient-2);
      }

      .cls-6 {
        fill: url(#linear-gradient-8);
      }

      .cls-7 {
        fill: url(#linear-gradient-7);
      }

      .cls-8 {
        fill: url(#linear-gradient-5);
      }

      .cls-9 {
        fill: url(#linear-gradient-6);
      }

      .cls-10 {
        fill: url(#linear-gradient-9);
      }

      .cls-11 {
        fill: url(#linear-gradient-4);
      }

      .cls-12 {
        fill: url(#linear-gradient-3);
      }

      .cls-13 {
        fill: url(#linear-gradient-2);
      }

      .cls-14 {
        fill: url(#radial-gradient);
      }

      .cls-15 {
        fill: url(#linear-gradient);
      }

      .cls-16 {
        fill: #fefeda;
      }

      .cls-17 {
        fill: #946507;
      }

      .cls-18 {
        letter-spacing: 0em;
      }

      .cls-19 {
        fill: url(#linear-gradient-10);
      }

      .cls-20 {
        fill: url(#linear-gradient-11);
      }

      .cls-21 {
        fill: #010100;
      }

      .cls-22 {
        letter-spacing: -.01em;
      }

      .cls-23 {
        letter-spacing: -.01em;
      }

      .cls-24 {
        letter-spacing: 0em;
      }

      .cls-25 {
        fill: #fef7d2;
      }

      .cls-26 {
        clip-path: url(#clippath);
      }
    </style>
    <linearGradient id="linear-gradient" x1="436.74" y1="105.74" x2="436.74" y2="771.75" gradientUnits="userSpaceOnUse">
      <stop offset="0" stop-color="#fdf6b5"/>
      <stop offset=".14" stop-color="#c89725"/>
      <stop offset=".77" stop-color="#c89725"/>
      <stop offset=".93" stop-color="#fbeb97"/>
      <stop offset="1" stop-color="#f3c028"/>
    </linearGradient>
    <linearGradient id="linear-gradient-2" x1="436.74" y1="121.18" x2="436.74" y2="739.58" xlink:href="#linear-gradient"/>
    <clipPath id="clippath">
      <path class="cls-1" d="M623.11,619.15c-48.25,61.48-110.11,102.33-186.37,133.07-76.26-30.74-138.13-71.59-186.37-133.07-48.25-61.48-43.68-125.58-43.68-125.58V164.95c78.79-16.93,230.05-36.77,230.05-36.77,0,0,151.26,19.84,230.05,36.77v328.62s4.57,64.1-43.68,125.58Z"/>
    </clipPath>
    <radialGradient id="radial-gradient" cx="446.16" cy="130.43" fx="446.16" fy="130.43" r="274.16" gradientUnits="userSpaceOnUse">
      <stop offset="0" stop-color="#353332"/>
      <stop offset="1" stop-color="#0a0a0a"/>
    </radialGradient>
    <radialGradient id="radial-gradient-2" cx="436.74" cy="492.16" fx="436.74" fy="492.16" r="179.03" gradientUnits="userSpaceOnUse">
      <stop offset="0" stop-color="#3c2116"/>
      <stop offset="1" stop-color="#000" stop-opacity="0"/>
    </radialGradient>
    <radialGradient id="radial-gradient-3" cx="436.74" cy="741.96" fx="436.74" fy="741.96" r="200.76" gradientUnits="userSpaceOnUse">
      <stop offset="0" stop-color="#312f2e"/>
      <stop offset="1" stop-color="#000" stop-opacity="0"/>
    </radialGradient>
    <linearGradient id="linear-gradient-3" x1="218.16" y1="561.72" x2="655.31" y2="561.72" gradientUnits="userSpaceOnUse">
      <stop offset="0" stop-color="#331600"/>
      <stop offset=".27" stop-color="#e9ac11"/>
      <stop offset=".48" stop-color="#fefefe"/>
      <stop offset=".77" stop-color="#b47a0e"/>
      <stop offset="1" stop-color="#331600"/>
    </linearGradient>
    <linearGradient id="linear-gradient-4" x1="206.69" y1="424.66" x2="666.79" y2="424.66" xlink:href="#linear-gradient-3"/>
    <radialGradient id="radial-gradient-4" cx="437.49" cy="157.2" fx="437.49" fy="157.2" r="192.06" gradientTransform="translate(0 78.17) scale(1 .5)" gradientUnits="userSpaceOnUse">
      <stop offset="0" stop-color="#fefdfe"/>
      <stop offset="1" stop-color="#efe3ae"/>
    </radialGradient>
    <linearGradient id="linear-gradient-5" x1="369.82" y1="321" x2="503.66" y2="321" gradientUnits="userSpaceOnUse">
      <stop offset="0" stop-color="#9d690a"/>
      <stop offset=".46" stop-color="#c48b0a"/>
      <stop offset="1" stop-color="#9d690a"/>
    </linearGradient>
    <linearGradient id="linear-gradient-6" x1="369.82" y1="321" x2="503.66" y2="321" gradientUnits="userSpaceOnUse">
      <stop offset="0" stop-color="#f4ec42"/>
      <stop offset=".46" stop-color="#fefdec"/>
      <stop offset="1" stop-color="#f9ea37"/>
    </linearGradient>
    <linearGradient id="linear-gradient-7" x1="503.66" x2="637.49" xlink:href="#linear-gradient-5"/>
    <linearGradient id="linear-gradient-8" x1="503.66" x2="637.49" xlink:href="#linear-gradient-6"/>
    <linearGradient id="linear-gradient-9" x1="235.98" x2="369.82" xlink:href="#linear-gradient-5"/>
    <linearGradient id="linear-gradient-10" x1="235.98" x2="369.82" xlink:href="#linear-gradient-6"/>
    <linearGradient id="linear-gradient-11" x1="252.61" y1="488.97" x2="619.09" y2="488.97" gradientUnits="userSpaceOnUse">
      <stop offset="0" stop-color="#e5b23a"/>
      <stop offset=".46" stop-color="#fbeec0"/>
      <stop offset="1" stop-color="#e5b23a"/>
    </linearGradient>
  </defs>
  <path class="cls-21" d="M690.12,498.82V146.23c-86.78-18.64-253.38-40.5-253.38-40.5,0,0-166.6,21.86-253.38,40.5v352.59s-5.04,70.6,48.1,138.31c53.14,67.71,121.28,112.71,205.27,146.56,84-33.86,152.13-78.85,205.27-146.56,53.14-67.71,48.1-138.31,48.1-138.31Z"/>
  <path class="cls-15" d="M690.12,498.82V146.23c-86.78-18.64-253.38-40.5-253.38-40.5,0,0-166.6,21.86-253.38,40.5v352.59s-5.04,70.6,48.1,138.31c53.14,67.71,121.28,112.71,205.27,146.56,84-33.86,152.13-78.85,205.27-146.56,53.14-67.71,48.1-138.31,48.1-138.31ZM633.81,626.73c-51.02,65-116.43,108.2-197.07,140.7-80.64-32.5-146.05-75.7-197.07-140.7-51.02-65-46.18-132.78-46.18-132.78V153.94c83.31-17.9,243.25-38.88,243.25-38.88,0,0,159.94,20.98,243.25,38.88v340.01s4.83,67.78-46.18,132.78Z"/>
  <path class="cls-13" d="M672.67,495.17V158.89c-80.81-17.36-235.93-37.71-235.93-37.71,0,0-155.13,20.35-235.93,37.71v336.28s-4.69,65.74,44.79,128.79c49.48,63.05,112.93,104.95,191.14,136.47,78.21-31.52,141.66-73.42,191.14-136.47,49.48-63.05,44.79-128.79,44.79-128.79ZM623.11,619.15c-48.25,61.48-110.11,102.33-186.37,133.07-76.26-30.74-138.13-71.59-186.37-133.07-48.25-61.48-43.68-125.58-43.68-125.58V164.95c78.79-16.93,230.05-36.77,230.05-36.77,0,0,151.26,19.84,230.05,36.77v328.62s4.57,64.1-43.68,125.58Z"/>
  <g class="cls-26">
    <path class="cls-14" d="M623.11,619.15c-48.25,61.48-110.11,102.33-186.37,133.07-76.26-30.74-138.13-71.59-186.37-133.07-48.25-61.48-43.68-125.58-43.68-125.58V164.95c78.79-16.93,230.05-36.77,230.05-36.77,0,0,151.26,19.84,230.05,36.77v328.62s4.57,64.1-43.68,125.58Z"/>
    <circle class="cls-5" cx="436.74" cy="492.16" r="179.03"/>
    <circle class="cls-4" cx="436.74" cy="741.96" r="200.76"/>
  </g>
  <polygon class="cls-25" points="390.52 600.56 380.69 590.73 367.86 603.56 355.04 590.73 345.21 600.56 358.04 613.39 345.21 626.22 355.04 636.04 367.86 623.22 380.69 636.04 390.52 626.22 377.69 613.39 390.52 600.56"/>
  <polygon class="cls-25" points="459.39 600.56 449.57 590.73 436.74 603.56 423.91 590.73 414.08 600.56 426.91 613.39 414.08 626.22 423.91 636.04 436.74 623.22 449.57 636.04 459.39 626.22 446.56 613.39 459.39 600.56"/>
  <polygon class="cls-25" points="529.17 600.56 519.34 590.73 506.51 603.56 493.68 590.73 483.86 600.56 496.68 613.39 483.86 626.22 493.68 636.04 506.51 623.22 519.34 636.04 529.17 626.22 516.34 613.39 529.17 600.56"/>
  <path class="cls-12" d="M655.31,560.89c-.52,1.46-1.07,2.93-1.65,4.42-7-.16-119.16-2.56-217.85-2.56-93.1,0-198.47,2.15-216.03,2.51-.57-1.47-1.11-2.93-1.62-4.38,11.69-.25,133.11-2.74,217.65-2.74s210.42,2.56,219.5,2.75Z"/>
  <path class="cls-11" d="M666.79,423.77v4.46c-14.62-.29-129.01-2.54-230.09-2.54s-213.52,2.2-230.01,2.53v-4.43c17.4-.34,142.38-2.71,230.01-2.71s207.97,2.26,230.09,2.69Z"/>
  <path class="cls-3" d="M292.39,221.67l32.14-1.61v18.96l-61.6,5.25v-80.14l29.46-1.07v58.6ZM386.88,203.67s1.07,13.61-11.79,14.04-12.43-8.79-12.64-10.71c-.21-1.93-.43-47.78-.43-47.78l-29.57.64v46.93s.32,29.57,33.11,30.21c32.78.64,45.64-9.32,46.93-29.57v-49.71h-25.61v45.96ZM427.06,233.67h28.12v-26.52h29.41v-17.2l-29.73-.8v-13.82l34.07.64v-18.27s-54.48-.38-61.87-.7v76.66ZM501.36,235.65s22.07.59,29.57,1.37v-77.22s-24.21-1.07-29.57-1.07v76.92ZM541.22,160.44v18.43l23.78,1.5v60.64s24.86,1.71,26.57,1.93v-60.21l23.57,1.29v-18.64s-50.8-3.75-73.92-4.93Z"/>
  <g>
    <g>
      <circle class="cls-8" cx="436.74" cy="321" r="66.92"/>
      <path class="cls-9" d="M436.74,257.36c35.09,0,63.64,28.55,63.64,63.64s-28.55,63.64-63.64,63.64-63.64-28.55-63.64-63.64,28.55-63.64,63.64-63.64M436.74,254.08c-36.96,0-66.92,29.96-66.92,66.92s29.96,66.92,66.92,66.92,66.92-29.96,66.92-66.92-29.96-66.92-66.92-66.92h0Z"/>
    </g>
    <g>
      <circle class="cls-7" cx="570.58" cy="321" r="66.92"/>
      <path class="cls-6" d="M570.58,257.36c35.09,0,63.64,28.55,63.64,63.64s-28.55,63.64-63.64,63.64-63.64-28.55-63.64-63.64,28.55-63.64,63.64-63.64M570.58,254.08c-36.96,0-66.92,29.96-66.92,66.92s29.96,66.92,66.92,66.92,66.92-29.96,66.92-66.92-29.96-66.92-66.92-66.92h0Z"/>
    </g>
    <g>
      <path class="cls-17" d="M534.57,331.43s-1.29,5.57-1.29,7.93.86,3.43,3.86,3.86,28.71,0,28.71,0c0,0,3,1.29,3.86-3.21s0-8.57,0-8.57h-35.14Z"/>
      <path class="cls-17" d="M570.1,329.3s1.12-6.43,2.83-7.93,7.5-11.79,6.64-22.5-10.71-19.93-19.5-19.28c-8.79.64-14.78,5.79-17.36,15.86,0,0-17.57-6.86-18,10.5s15.86,17.14,18.43,13.71l1.29,1.71s-4.5,1.93-6.21,3-3,2.8-.86,4.93h32.74Z"/>
      <path class="cls-17" d="M586.27,305.94s-4.98-4.12-1.29-12.16,7.71-14.23,7.71-14.23c0,0-3.54,12.27-3.86,13.49s-.16,3.63,1.61.9,6.75-12.05,6.75-12.05l-2.89,13.34s-.8,4.34,1.61.96c2.41-3.37,6.59-12.21,6.59-12.21,0,0-2.25,9.78-4.02,16.62-1.77,6.84-7.87,7-7.87,7l-22.98,58.82s-4.5-.32-4.34-1.93l22.98-58.55Z"/>
      <path class="cls-17" d="M596.07,328.33l-18.8,34.07s-4.02,5.14-.8,7.39,5.62-3.37,5.62-3.37l17.84-36.16s10.61-.89,14.14-7.27,1.93-13.3-1.29-16.19-10.45-5.3-16.39,3.05-.32,18.48-.32,18.48Z"/>
    </g>
    <g>
      <g>
        <path class="cls-17" d="M466.84,322.29l-44.63,39.37s-3.7,3.61-.97,6.48c0,0,1.73,1.7,6.61-1.81l47.18-36.83-8.19-7.22Z"/>
        <path class="cls-17" d="M490.36,303.4l-21.76,17.53,8.57,8.58s20.14-1.73,13.19-26.11ZM486.14,311.76l-2.73,1.81,1.56,1.31v1.57l-5.55,1.55h4.38l-1.75,1.75h-7.02l12.08-11.5-.97,3.51Z"/>
        <path class="cls-17" d="M412.28,299.29c-4.09,1.17-37.81,14.23-29.23,33.21,8.57,18.98,48.33,18.05,48.33,18.05l42.68-38.23c-16.76-23.42-57.69-14.19-61.78-13.02ZM396.06,333.89c-4.21,0-7.63-2.79-7.63-6.24s3.41-6.24,7.63-6.24,7.63,2.79,7.63,6.24-3.41,6.24-7.63,6.24ZM411.84,318.22c-4.21,0-7.63-2.79-7.63-6.24s3.41-6.24,7.63-6.24,7.63,2.79,7.63,6.24-3.41,6.24-7.63,6.24ZM427.09,343.93c-4.21,0-7.63-2.79-7.63-6.24s3.41-6.24,7.63-6.24,7.63,2.79,7.63,6.24-3.41,6.24-7.63,6.24ZM435.48,314.5c-4.21,0-7.63-2.79-7.63-6.24s3.41-6.24,7.63-6.24,7.63,2.79,7.63,6.24-3.41,6.24-7.63,6.24ZM458.18,320.25c-4.21,0-7.63-2.79-7.63-6.24s3.41-6.24,7.63-6.24,7.63,2.79,7.63,6.24-3.41,6.24-7.63,6.24Z"/>
      </g>
      <g>
        <path class="cls-16" d="M466.84,320.94l-44.63,39.37s-3.7,3.61-.97,6.48c0,0,1.73,1.7,6.61-1.81l47.18-36.83-8.19-7.22Z"/>
        <path class="cls-16" d="M490.36,302.05l-21.76,17.53,8.57,8.58s20.14-1.73,13.19-26.11ZM486.14,310.41l-2.73,1.81,1.56,1.31v1.57l-5.55,1.55h4.38l-1.75,1.75h-7.02l12.08-11.5-.97,3.51Z"/>
        <path class="cls-16" d="M412.28,297.94c-4.09,1.17-37.81,14.23-29.23,33.21,8.57,18.98,48.33,18.05,48.33,18.05l42.68-38.23c-16.76-23.42-57.69-14.19-61.78-13.02ZM396.06,332.54c-4.21,0-7.63-2.79-7.63-6.24s3.41-6.24,7.63-6.24,7.63,2.79,7.63,6.24-3.41,6.24-7.63,6.24ZM411.84,316.87c-4.21,0-7.63-2.79-7.63-6.24s3.41-6.24,7.63-6.24,7.63,2.79,7.63,6.24-3.41,6.24-7.63,6.24ZM427.09,342.58c-4.21,0-7.63-2.79-7.63-6.24s3.41-6.24,7.63-6.24,7.63,2.79,7.63,6.24-3.41,6.24-7.63,6.24ZM435.48,313.15c-4.21,0-7.63-2.79-7.63-6.24s3.41-6.24,7.63-6.24,7.63,2.79,7.63,6.24-3.41,6.24-7.63,6.24ZM458.18,318.9c-4.21,0-7.63-2.79-7.63-6.24s3.41-6.24,7.63-6.24,7.63,2.79,7.63,6.24-3.41,6.24-7.63,6.24Z"/>
      </g>
    </g>
    <g>
      <g>
        <circle class="cls-10" cx="302.9" cy="321" r="66.92"/>
        <path class="cls-19" d="M302.9,257.36c35.09,0,63.64,28.55,63.64,63.64s-28.55,63.64-63.64,63.64-63.64-28.55-63.64-63.64,28.55-63.64,63.64-63.64M302.9,254.08c-36.96,0-66.92,29.96-66.92,66.92s29.96,66.92,66.92,66.92,66.92-29.96,66.92-66.92-29.96-66.92-66.92-66.92h0Z"/>
      </g>
      <g>
        <g>
          <path class="cls-17" d="M312.37,276.5v11.14l-14.09,7.36-17.03-2.94-2.67-9.34c6.98-4.57,15.33-7.23,24.31-7.23,3.25,0,6.42.35,9.47,1.01Z"/>
          <path class="cls-17" d="M280.52,293.16l-9.2,14.36-12.11,4.15c2.2-11.7,8.98-21.78,18.41-28.3l2.89,9.79Z"/>
          <path class="cls-17" d="M280.52,319.95v19.25l-9.57,4.79-9.03-6.77h0c-2.24-5.32-3.47-11.14-3.47-17.26,0-2.51.2-4.96.61-7.35l11.95-4.02,9.52,11.37Z"/>
          <polygon class="cls-17" points="297.51 312.86 313.52 324.04 313.52 339.92 295.48 348.62 281.76 339.37 281.76 319.95 297.51 312.86"/>
          <path class="cls-17" d="M347.36,319.95c0,1.72-.1,3.41-.29,5.07l-9.66,2.9-7.19-11.05v-18.91l7.38-5.79c6.1,7.61,9.76,17.27,9.76,27.79Z"/>
          <polygon class="cls-17" points="313.52 288.28 329.27 298.22 329.27 317.14 314.01 322.94 298.54 311.94 298.54 296.36 313.52 288.28"/>
          <path class="cls-17" d="M299.02,364.24c-5.68-.49-11.07-2.05-15.93-4.48h11.03l4.9,4.48Z"/>
          <path class="cls-17" d="M328.14,345.27l-.23,11.45c-7.12,4.86-15.74,7.69-25.01,7.69-.54,0-1.08,0-1.63-.04h0l-5.43-4.61v-10.08l17.12-8.38,15.19,3.96Z"/>
          <path class="cls-17" d="M346.91,326.34c-1.73,12.04-8.29,22.52-17.64,29.42v-11.23l8.17-15.65,9.47-2.54Z"/>
          <path class="cls-17" d="M274.7,354.32c-4.89-4.01-8.89-9.03-11.71-14.75l7.84,5.37,3.87,9.38Z"/>
        </g>
        <g>
          <path class="cls-16" d="M312.37,275.24v11.14l-14.09,7.36-17.03-2.94-2.67-9.34c6.98-4.57,15.33-7.23,24.31-7.23,3.25,0,6.42.35,9.47,1.01Z"/>
          <path class="cls-16" d="M280.52,291.9l-9.2,14.36-12.11,4.15c2.2-11.7,8.98-21.78,18.41-28.3l2.89,9.79Z"/>
          <path class="cls-16" d="M280.52,318.68v19.25l-9.57,4.79-9.03-6.77h0c-2.24-5.32-3.47-11.14-3.47-17.26,0-2.51.2-4.96.61-7.35l11.95-4.02,9.52,11.37Z"/>
          <polygon class="cls-16" points="297.51 311.6 313.52 322.78 313.52 338.66 295.48 347.36 281.76 338.11 281.76 318.69 297.51 311.6"/>
          <path class="cls-16" d="M347.36,318.68c0,1.72-.1,3.41-.29,5.07l-9.66,2.9-7.19-11.05v-18.91l7.38-5.79c6.1,7.61,9.76,17.27,9.76,27.79Z"/>
          <polygon class="cls-16" points="313.52 287.02 329.27 296.96 329.27 315.88 314.01 321.68 298.54 310.68 298.54 295.1 313.52 287.02"/>
          <path class="cls-16" d="M299.02,362.98c-5.68-.49-11.07-2.05-15.93-4.48h11.03l4.9,4.48Z"/>
          <path class="cls-16" d="M328.14,344l-.23,11.45c-7.12,4.86-15.74,7.69-25.01,7.69-.54,0-1.08,0-1.63-.04h0l-5.43-4.61v-10.08l17.12-8.38,15.19,3.96Z"/>
          <path class="cls-16" d="M346.91,325.07c-1.73,12.04-8.29,22.52-17.64,29.42v-11.23l8.17-15.65,9.47-2.54Z"/>
          <path class="cls-16" d="M274.7,353.06c-4.89-4.01-8.89-9.03-11.71-14.75l7.84,5.37,3.87,9.38Z"/>
        </g>
      </g>
    </g>
    <g>
      <path class="cls-16" d="M534.57,329.99s-1.29,5.57-1.29,7.93.86,3.43,3.86,3.86,28.71,0,28.71,0c0,0,3,1.29,3.86-3.21s0-8.57,0-8.57h-35.14Z"/>
      <path class="cls-16" d="M570.1,327.85s1.12-6.43,2.83-7.93,7.5-11.79,6.64-22.5-10.71-19.93-19.5-19.28c-8.79.64-14.78,5.79-17.36,15.86,0,0-17.57-6.86-18,10.5s15.86,17.14,18.43,13.71l1.29,1.71s-4.5,1.93-6.21,3-3,2.8-.86,4.93h32.74Z"/>
      <path class="cls-16" d="M586.27,304.49s-4.98-4.12-1.29-12.16,7.71-14.23,7.71-14.23c0,0-3.54,12.27-3.86,13.49s-.16,3.63,1.61.9,6.75-12.05,6.75-12.05l-2.89,13.34s-.8,4.34,1.61.96c2.41-3.37,6.59-12.21,6.59-12.21,0,0-2.25,9.78-4.02,16.62-1.77,6.84-7.87,7-7.87,7l-22.98,58.82s-4.5-.32-4.34-1.93l22.98-58.55Z"/>
      <path class="cls-16" d="M596.07,326.88l-18.8,34.07s-4.02,5.14-.8,7.39,5.62-3.37,5.62-3.37l17.84-36.16s10.61-.89,14.14-7.27,1.93-13.3-1.29-16.19-10.45-5.3-16.39,3.05c-5.95,8.36-.32,18.48-.32,18.48Z"/>
    </g>
  </g>
  <g>
    <text class="cls-2" transform="translate(253.14 480.78)"><tspan x="0" y="0">JEUGD IN B</tspan><tspan class="cls-24" x="198.71" y="0">E</tspan><tspan class="cls-22" x="220.37" y="0">W</tspan><tspan x="257.98" y="0">EGING</tspan><tspan x="29.75" y="39.32">&amp; ON</tspan><tspan class="cls-23" x="117.02" y="39.32">T</tspan><tspan class="cls-22" x="136.84" y="39.32">W</tspan><tspan class="cls-18" x="174.46" y="39.32">IKKELING</tspan></text>
    <g>
      <path class="cls-20" d="M260.08,481.17c-1.55,0-2.98-.29-4.28-.87-1.3-.58-2.36-1.41-3.19-2.51l2.95-3.51c.61.83,1.27,1.45,1.98,1.87.71.42,1.47.62,2.28.62,2.16,0,3.24-1.26,3.24-3.77v-10.91h-8.03v-4.26h13.34v14.88c0,2.84-.71,4.96-2.11,6.36-1.41,1.4-3.47,2.1-6.18,2.1Z"/>
      <path class="cls-20" d="M273.58,480.78v-22.94h17.33v4.26h-12.06v14.42h12.49v4.26h-17.76ZM278.47,471.21v-4.16h11.04v4.16h-11.04Z"/>
      <path class="cls-20" d="M305.76,481.17c-3.25,0-5.8-.91-7.63-2.72s-2.75-4.41-2.75-7.8v-12.81h5.34v12.68c0,2.16.45,3.73,1.34,4.7.89.97,2.14,1.46,3.74,1.46s2.87-.49,3.77-1.46c.89-.97,1.34-2.54,1.34-4.7v-12.68h5.21v12.81c0,3.39-.92,5.99-2.75,7.8s-4.37,2.72-7.6,2.72Z"/>
      <path class="cls-20" d="M332.47,481.17c-1.81,0-3.48-.29-5.01-.87-1.53-.58-2.85-1.4-3.96-2.47s-1.98-2.33-2.61-3.77c-.62-1.44-.93-3.03-.93-4.75s.31-3.31.93-4.75c.62-1.44,1.5-2.7,2.64-3.77,1.13-1.07,2.47-1.89,4-2.47,1.53-.58,3.21-.87,5.05-.87,2.03,0,3.86.34,5.49,1.02,1.63.68,3,1.66,4.11,2.95l-3.38,3.15c-.85-.9-1.77-1.56-2.75-1.98-.98-.43-2.06-.64-3.24-.64-1.09,0-2.1.18-3.02.54-.92.36-1.71.87-2.38,1.52s-1.18,1.43-1.54,2.33c-.36.9-.54,1.89-.54,2.98s.18,2.03.54,2.93.87,1.69,1.54,2.34,1.45,1.17,2.36,1.54c.91.37,1.91.56,3,.56s2.07-.17,3.06-.52,1.96-.93,2.9-1.74l3.01,3.83c-1.27.96-2.72,1.69-4.36,2.18-1.64.49-3.28.74-4.92.74ZM341.74,478.25l-4.85-.72v-8.58h4.85v9.31Z"/>
      <path class="cls-20" d="M346.66,480.78v-22.94h10.42c2.49,0,4.69.48,6.59,1.43,1.9.95,3.39,2.28,4.46,4s1.61,3.73,1.61,6.05-.54,4.33-1.61,6.05-2.56,3.05-4.46,4c-1.9.95-4.1,1.43-6.59,1.43h-10.42ZM352,476.45h4.82c1.53,0,2.86-.29,3.98-.87,1.12-.58,2-1.41,2.62-2.49.62-1.08.93-2.34.93-3.78s-.31-2.73-.93-3.8c-.62-1.07-1.5-1.89-2.62-2.47s-2.45-.87-3.98-.87h-4.82v14.29Z"/>
      <path class="cls-20" d="M383,480.78v-22.94h5.34v22.94h-5.34Z"/>
      <path class="cls-20" d="M393.75,480.78v-22.94h4.39l13.53,16.52h-2.13v-16.52h5.24v22.94h-4.39l-13.53-16.52h2.13v16.52h-5.24Z"/>
      <path class="cls-20" d="M429.5,480.78v-22.94h11.21c2.88,0,5.05.55,6.5,1.64,1.45,1.09,2.18,2.53,2.18,4.33,0,1.2-.29,2.25-.88,3.13s-1.4,1.57-2.44,2.05c-1.04.48-2.21.72-3.52.72l.62-1.38c1.44,0,2.71.24,3.82.72,1.1.48,1.97,1.18,2.6,2.1.63.92.95,2.04.95,3.38,0,1.97-.78,3.5-2.33,4.6-1.55,1.1-3.83,1.66-6.85,1.66h-11.86ZM434.77,476.78h6.23c1.35,0,2.39-.23,3.11-.69.72-.46,1.08-1.17,1.08-2.13s-.36-1.7-1.08-2.16c-.72-.46-1.76-.69-3.11-.69h-6.62v-3.87h5.67c1.29,0,2.28-.22,2.97-.67.69-.45,1.03-1.13,1.03-2.05s-.34-1.59-1.03-2.03c-.69-.44-1.68-.66-2.97-.66h-5.28v14.94Z"/>
      <path class="cls-20" d="M454.56,480.78v-22.94h17.33v4.26h-12.06v14.42h12.49v4.26h-17.76ZM459.45,471.21v-4.16h11.04v4.16h-11.04Z"/>
      <path class="cls-20" d="M481.76,480.78l-7.54-22.94h5.5l6.52,20.32h-2.75l6.82-20.32h4.92l6.55,20.32h-2.65l6.68-20.32h5.08l-7.54,22.94h-5.64l-5.83-17.83h1.51l-5.96,17.83h-5.67Z"/>
      <path class="cls-20" d="M513.84,480.78v-22.94h17.33v4.26h-12.06v14.42h12.49v4.26h-17.76ZM518.72,471.21v-4.16h11.04v4.16h-11.04Z"/>
      <path class="cls-20" d="M546.91,481.17c-1.81,0-3.49-.29-5.01-.87-1.53-.58-2.85-1.4-3.96-2.47-1.11-1.07-1.98-2.33-2.61-3.77-.62-1.44-.93-3.03-.93-4.75s.31-3.31.93-4.75c.62-1.44,1.5-2.7,2.64-3.77,1.14-1.07,2.47-1.89,4-2.47,1.53-.58,3.21-.87,5.05-.87,2.03,0,3.86.34,5.49,1.02,1.63.68,3,1.66,4.11,2.95l-3.38,3.15c-.85-.9-1.77-1.56-2.75-1.98-.98-.43-2.06-.64-3.24-.64-1.09,0-2.1.18-3.01.54-.92.36-1.71.87-2.38,1.52-.67.66-1.18,1.43-1.54,2.33-.36.9-.54,1.89-.54,2.98s.18,2.03.54,2.93.87,1.69,1.54,2.34c.67.66,1.45,1.17,2.36,1.54.91.37,1.91.56,3,.56s2.07-.17,3.06-.52,1.96-.93,2.9-1.74l3.01,3.83c-1.27.96-2.72,1.69-4.36,2.18-1.64.49-3.28.74-4.92.74ZM556.18,478.25l-4.85-.72v-8.58h4.85v9.31Z"/>
      <path class="cls-20" d="M561.09,480.78v-22.94h5.34v22.94h-5.34Z"/>
      <path class="cls-20" d="M571.84,480.78v-22.94h4.39l13.53,16.52h-2.13v-16.52h5.24v22.94h-4.39l-13.53-16.52h2.13v16.52h-5.24Z"/>
      <path class="cls-20" d="M609.39,481.17c-1.81,0-3.49-.29-5.01-.87-1.53-.58-2.85-1.4-3.96-2.47-1.11-1.07-1.98-2.33-2.61-3.77-.62-1.44-.93-3.03-.93-4.75s.31-3.31.93-4.75c.62-1.44,1.5-2.7,2.64-3.77,1.14-1.07,2.47-1.89,4-2.47,1.53-.58,3.21-.87,5.05-.87,2.03,0,3.86.34,5.49,1.02,1.63.68,3,1.66,4.11,2.95l-3.38,3.15c-.85-.9-1.77-1.56-2.75-1.98-.98-.43-2.06-.64-3.24-.64-1.09,0-2.1.18-3.01.54-.92.36-1.71.87-2.38,1.52-.67.66-1.18,1.43-1.54,2.33-.36.9-.54,1.89-.54,2.98s.18,2.03.54,2.93.87,1.69,1.54,2.34c.67.66,1.45,1.17,2.36,1.54.91.37,1.91.56,3,.56s2.07-.17,3.06-.52,1.96-.93,2.9-1.74l3.01,3.83c-1.27.96-2.72,1.69-4.36,2.18-1.64.49-3.28.74-4.92.74ZM618.67,478.25l-4.85-.72v-8.58h4.85v9.31Z"/>
      <path class="cls-20" d="M303.27,520.49l-13.37-12.42c-.74-.68-1.34-1.32-1.8-1.93-.46-.61-.8-1.22-1.03-1.82-.23-.6-.34-1.21-.34-1.82,0-1.11.3-2.1.9-2.95.6-.85,1.44-1.51,2.52-1.98,1.08-.47,2.32-.71,3.72-.71s2.52.21,3.49.64c.97.43,1.74,1.03,2.29,1.82.56.79.83,1.73.83,2.82,0,.94-.24,1.81-.72,2.62-.48.81-1.23,1.56-2.26,2.26-1.03.7-2.35,1.41-3.96,2.13-1.09.5-1.97.99-2.62,1.47s-1.13.96-1.41,1.42c-.28.47-.43,1.01-.43,1.62,0,.52.16,1,.49,1.44.33.44.8.77,1.41,1s1.34.34,2.2.34c1.33,0,2.55-.31,3.65-.93,1.1-.62,2.05-1.54,2.83-2.77.79-1.22,1.34-2.71,1.67-4.46l4.1,1.25c-.44,2.23-1.25,4.16-2.44,5.8-1.19,1.64-2.65,2.91-4.39,3.8-1.74.9-3.67,1.34-5.78,1.34-1.66,0-3.15-.27-4.47-.82-1.32-.55-2.37-1.29-3.13-2.23s-1.15-2.02-1.15-3.24c0-1.14.25-2.16.75-3.08.5-.92,1.3-1.77,2.39-2.56,1.09-.79,2.49-1.56,4.19-2.33,1.22-.57,2.18-1.07,2.87-1.51.69-.44,1.17-.85,1.46-1.25.28-.39.43-.81.43-1.25,0-.54-.19-1-.57-1.36-.38-.36-.95-.54-1.69-.54-.79,0-1.4.2-1.83.59-.44.39-.66.9-.66,1.51,0,.33.07.65.21.97s.39.68.75,1.08c.36.4.88.93,1.56,1.59l12.09,11.17-2.75,3.24Z"/>
      <path class="cls-20" d="M329.88,520.49c-1.81,0-3.49-.29-5.01-.88-1.53-.59-2.86-1.42-4-2.49-1.14-1.07-2.02-2.33-2.64-3.77-.62-1.44-.93-3.01-.93-4.72s.31-3.3.93-4.74c.62-1.43,1.5-2.68,2.64-3.75,1.13-1.07,2.46-1.9,3.98-2.49,1.52-.59,3.18-.88,5-.88s3.48.29,5,.87c1.52.58,2.84,1.4,3.98,2.47,1.13,1.07,2.02,2.33,2.64,3.77.62,1.44.93,3.03.93,4.75s-.31,3.28-.93,4.73c-.62,1.45-1.5,2.71-2.64,3.79-1.14,1.07-2.46,1.9-3.98,2.47-1.52.58-3.17.87-4.96.87ZM329.85,516c1.03,0,1.97-.18,2.83-.54s1.62-.87,2.28-1.54c.66-.67,1.16-1.44,1.52-2.33.36-.88.54-1.87.54-2.96s-.18-2.08-.54-2.97c-.36-.88-.87-1.66-1.52-2.33-.66-.67-1.41-1.18-2.28-1.54-.86-.36-1.81-.54-2.83-.54s-1.98.18-2.85.54c-.87.36-1.63.87-2.28,1.54-.64.67-1.15,1.44-1.51,2.33s-.54,1.87-.54,2.97.18,2.08.54,2.96.86,1.66,1.51,2.33c.64.67,1.4,1.18,2.28,1.54.87.36,1.82.54,2.85.54Z"/>
      <path class="cls-20" d="M346.4,520.1v-22.94h4.39l13.53,16.52h-2.13v-16.52h5.24v22.94h-4.39l-13.53-16.52h2.13v16.52h-5.24Z"/>
      <path class="cls-20" d="M377.62,520.1v-18.61h-7.34v-4.33h19.99v4.33h-7.34v18.61h-5.31Z"/>
      <path class="cls-20" d="M398.24,520.1l-7.54-22.94h5.5l6.52,20.32h-2.75l6.82-20.32h4.92l6.55,20.32h-2.65l6.68-20.32h5.08l-7.54,22.94h-5.64l-5.83-17.83h1.51l-5.96,17.83h-5.67Z"/>
      <path class="cls-20" d="M430.32,520.1v-22.94h5.34v22.94h-5.34Z"/>
      <path class="cls-20" d="M441.06,520.1v-22.94h5.28v22.94h-5.28ZM445.78,514.86l-.26-6.13,10.98-11.57h5.9l-9.86,10.65-3.01,3.15-3.74,3.9ZM456.76,520.1l-8.16-9.96,3.47-3.8,10.91,13.76h-6.23Z"/>
      <path class="cls-20" d="M465.31,520.1v-22.94h5.28v22.94h-5.28ZM470.03,514.86l-.26-6.13,10.98-11.57h5.9l-9.86,10.65-3.01,3.15-3.74,3.9ZM481.01,520.1l-8.16-9.96,3.47-3.8,10.91,13.76h-6.23Z"/>
      <path class="cls-20" d="M489.56,520.1v-22.94h17.33v4.26h-12.06v14.42h12.49v4.26h-17.76ZM494.44,510.53v-4.16h11.04v4.16h-11.04Z"/>
      <path class="cls-20" d="M511.55,520.1v-22.94h5.34v18.61h11.44v4.33h-16.78Z"/>
      <path class="cls-20" d="M531.34,520.1v-22.94h5.34v22.94h-5.34Z"/>
      <path class="cls-20" d="M542.09,520.1v-22.94h4.39l13.53,16.52h-2.13v-16.52h5.24v22.94h-4.39l-13.53-16.52h2.13v16.52h-5.24Z"/>
      <path class="cls-20" d="M579.64,520.49c-1.81,0-3.49-.29-5.01-.87-1.53-.58-2.85-1.4-3.96-2.47-1.11-1.07-1.98-2.33-2.61-3.77-.62-1.44-.93-3.03-.93-4.75s.31-3.31.93-4.75c.62-1.44,1.5-2.7,2.64-3.77,1.14-1.07,2.47-1.89,4-2.47,1.53-.58,3.21-.87,5.05-.87,2.03,0,3.86.34,5.49,1.02,1.63.68,3,1.66,4.11,2.95l-3.38,3.15c-.85-.9-1.77-1.56-2.75-1.98-.98-.43-2.06-.64-3.24-.64-1.09,0-2.1.18-3.01.54-.92.36-1.71.87-2.38,1.52-.67.66-1.18,1.43-1.54,2.33-.36.9-.54,1.89-.54,2.98s.18,2.03.54,2.93.87,1.69,1.54,2.34c.67.66,1.45,1.17,2.36,1.54.91.37,1.91.56,3,.56s2.07-.17,3.06-.52,1.96-.93,2.9-1.74l3.01,3.83c-1.27.96-2.72,1.69-4.36,2.18-1.64.49-3.28.74-4.92.74ZM588.91,517.58l-4.85-.72v-8.58h4.85v9.31Z"/>
    </g>
  </g>
</svg>